<svg width="188" height="36" viewBox="0 0 188 36" fill="none" xmlns="http://www.w3.org/2000/svg">
<path d="M9.80019 31.6998C9.40019 34.1998 7.8002 35.6998 5.2002 35.6998C2.6002 35.6998 0.200195 32.4998 0.200195 29.4998C0.200195 26.4998 1.7002 23.2998 5.2002 23.2998C8.7002 23.2998 9.40019 24.6998 9.80019 27.2998L7.50019 27.5998C7.30019 26.2998 6.70019 25.1998 5.30019 25.1998C3.20019 25.1998 2.80019 27.9998 2.80019 29.4998C2.80019 30.9998 3.20019 33.7998 5.30019 33.7998C7.40019 33.7998 7.30019 32.6998 7.50019 31.3998L9.80019 31.6998Z" fill="#525149"/>
<path d="M13.5998 23.3999H11.2998V35.4999H13.5998V23.3999Z" fill="#525149"/>
<path d="M20.2004 30.2002C20.2004 29.2002 19.8004 28.3002 18.7004 28.3002C17.6004 28.3002 17.2004 29.3002 17.2004 30.2002H20.2004ZM17.2004 31.7002C17.2004 32.8002 17.8004 34.0002 18.9004 34.0002C20.0004 34.0002 20.2004 33.3002 20.4004 32.6002L22.5004 33.0002C22.0004 34.7002 20.3004 35.7002 18.7004 35.7002C16.2004 35.7002 14.9004 33.5002 14.9004 31.2002C14.9004 28.9002 16.2004 26.7002 18.7004 26.7002C21.2004 26.7002 22.6004 27.7002 22.5004 31.8002H17.2004V31.7002Z" fill="#525149"/>
<path d="M28.0004 35.4998H25.6004L22.9004 26.7998H25.3004L26.8004 32.9998L28.3004 26.7998H30.6004L28.0004 35.4998Z" fill="#525149"/>
<path d="M36.2998 30.2002C36.2998 29.2002 35.8998 28.3002 34.7998 28.3002C33.6998 28.3002 33.2998 29.3002 33.2998 30.2002H36.2998ZM33.1998 31.7002C33.1998 32.8002 33.7998 34.0002 34.8998 34.0002C35.9998 34.0002 36.1998 33.3002 36.2998 32.6002L38.3998 33.0002C37.8998 34.7002 36.1998 35.7002 34.5998 35.7002C32.0998 35.7002 30.7998 33.5002 30.7998 31.2002C30.7998 28.9002 32.0998 26.7002 34.5998 26.7002C37.0998 26.7002 38.4998 27.7002 38.3998 31.8002H33.0998L33.1998 31.7002Z" fill="#525149"/>
<path d="M42.0998 23.3999H39.7998V35.4999H42.0998V23.3999Z" fill="#525149"/>
<path d="M48.5004 31.5001C47.6004 31.7001 45.7004 31.8001 45.7004 33.0001C45.7004 34.2001 45.9004 33.9001 46.5004 33.9001C47.4004 33.9001 48.1004 33.3001 48.5004 32.8001V31.5001ZM48.6004 34.7001C47.7004 35.3001 47.2004 35.7001 46.1004 35.7001C45.0004 35.7001 43.4004 34.7001 43.4004 33.1001C43.4004 30.6001 46.6004 30.1001 48.5004 29.9001C48.7004 28.7001 48.3004 28.2001 47.4004 28.2001C46.5004 28.2001 46.1004 28.5001 46.0004 29.3001L43.8004 29.0001C44.3004 27.1001 45.6004 26.6001 47.4004 26.6001C49.2004 26.6001 50.8004 27.7001 50.8004 29.3001V33.6001C50.8004 34.2001 50.8004 34.8001 51.1004 35.4001H48.9004L48.7004 34.6001L48.6004 34.7001Z" fill="#525149"/>
<path d="M54.4998 27.7001C55.1998 27.1001 56.0998 26.6001 57.0998 26.6001C58.0998 26.6001 59.3998 27.2001 59.3998 29.3001V35.5001H57.0998V30.3001C57.0998 29.6001 57.0998 28.5001 56.1998 28.5001C55.2998 28.5001 54.9998 29.0001 54.5998 29.5001V35.6001H52.2998V26.9001H54.5998V27.8001L54.4998 27.7001Z" fill="#525149"/>
<path d="M64.3 28.3999C63 28.3999 62.8 29.9999 62.8 30.9999C62.8 31.9999 63 33.6999 64.4 33.6999C65.8 33.6999 65.5 33.1999 65.9 32.6999V29.2999C65.5 28.7999 65 28.2999 64.4 28.2999M66.1 34.7999C65.4 35.3999 64.9 35.6999 63.9 35.6999C62.1 35.6999 60.5 34.5999 60.5 30.8999C60.5 27.1999 62.4 26.5999 63.7 26.5999C65 26.5999 65.2 27.0999 65.8 27.5999V23.3999H68.1V35.4999H66.3L66.1 34.7999Z" fill="#525149"/>
<path d="M83.3998 31.6998C82.9998 34.1998 81.3998 35.6998 78.7998 35.6998C76.1998 35.6998 73.7998 32.4998 73.7998 29.4998C73.7998 26.4998 75.2998 23.2998 78.7998 23.2998C82.2998 23.2998 82.9998 24.6998 83.3998 27.2998L81.0998 27.5998C80.8998 26.2998 80.2998 25.1998 78.8998 25.1998C76.7998 25.1998 76.3998 27.9998 76.3998 29.4998C76.3998 30.9998 76.7998 33.7998 78.8998 33.7998C80.9998 33.7998 80.8998 32.6998 81.0998 31.3998L83.3998 31.6998Z" fill="#525149"/>
<path d="M87.0002 23.3999H84.7002V35.4999H87.0002V23.3999Z" fill="#525149"/>
<path d="M91.0998 35.4999H88.7998V26.7999H91.0998V35.4999ZM91.0998 25.4999H88.7998V23.3999H91.0998V25.4999Z" fill="#525149"/>
<path d="M94.9998 27.7001C95.6998 27.1001 96.5998 26.6001 97.5998 26.6001C98.5998 26.6001 99.8998 27.2001 99.8998 29.3001V35.5001H97.5998V30.3001C97.5998 29.6001 97.5998 28.5001 96.6998 28.5001C95.7998 28.5001 95.4998 29.0001 95.0998 29.5001V35.6001H92.7998V26.9001H95.0998V27.8001L94.9998 27.7001Z" fill="#525149"/>
<path d="M103.3 35.4999H101V26.7999H103.3V35.4999ZM103.3 25.4999H101V23.3999H103.3V25.4999Z" fill="#525149"/>
<path d="M111.8 32.7002C111.4 34.5002 110.1 35.7002 108.2 35.7002C106.3 35.7002 104.4 33.5002 104.4 31.2002C104.4 28.9002 105.7 26.7002 108.2 26.7002C110.7 26.7002 111.5 27.9002 111.8 29.7002L109.7 30.1002C109.5 29.3002 109.3 28.4002 108.1 28.4002C106.9 28.4002 106.6 30.2002 106.6 31.2002C106.6 32.2002 106.8 34.0002 108.1 34.0002C109.4 34.0002 109.5 33.2002 109.7 32.3002L111.8 32.7002Z" fill="#525149"/>
<path d="M122.1 25.4999L120.8 30.5999H123.4L122.1 25.4999ZM127.2 35.4999H124.7L123.9 32.4999H120.3L119.5 35.4999H117L120.4 23.3999H123.7L127.1 35.4999H127.2Z" fill="#525149"/>
<path d="M130.1 32.9999C130.5 33.4999 130.9 33.9999 131.6 33.9999C133 33.9999 133.2 32.2999 133.2 31.1999C133.2 30.0999 132.9 28.5999 131.7 28.5999C130.5 28.5999 130.6 29.0999 130.2 29.5999V32.9999H130.1ZM127.8 23.3999H130.1V27.5999C130.7 26.9999 131.3 26.5999 132.2 26.5999C133.1 26.5999 135.4 27.6999 135.4 30.8999C135.4 34.0999 133.8 35.6999 132 35.6999C130.2 35.6999 130.5 35.3999 129.8 34.7999L129.6 35.4999H127.7V23.3999H127.8Z" fill="#525149"/>
<path d="M141.3 34.6002C140.6 35.2002 139.7 35.7002 138.7 35.7002C137.7 35.7002 136.4 35.1002 136.4 33.0002V26.8002H138.7V32.0002C138.7 32.7002 138.7 33.8002 139.6 33.8002C140.5 33.8002 140.8 33.3002 141.2 32.8002V26.7002H143.5V35.4002H141.2V34.5002L141.3 34.6002Z" fill="#525149"/>
<path d="M153 33.3998C154.9 33.3998 156.1 32.1998 156.1 29.0998C156.1 25.9998 155 25.3998 152.7 25.3998H151.8V33.3998H153ZM152.3 23.3998C156.9 23.3998 158.5 25.9998 158.5 29.3998C158.5 32.7998 156.7 35.3998 153.1 35.3998H149.3V23.2998H152.2L152.3 23.3998Z" fill="#525149"/>
<path d="M162 27.7C162.7 27.1 163.6 26.6 164.6 26.6C165.6 26.6 166.9 27.2 166.9 29.3V35.5H164.6V30.3C164.6 29.6 164.6 28.5 163.7 28.5C162.8 28.5 162.5 29 162.1 29.5V35.6H159.8V23.5H162.1V27.8L162 27.7Z" fill="#525149"/>
<path d="M173 31.5001C172.1 31.7001 170.2 31.8001 170.2 33.0001C170.2 34.2001 170.4 33.9001 171 33.9001C171.9 33.9001 172.6 33.3001 173 32.8001V31.5001ZM173.1 34.7001C172.2 35.3001 171.7 35.7001 170.6 35.7001C169.5 35.7001 167.9 34.7001 167.9 33.1001C167.9 30.6001 171.1 30.1001 173 29.9001C173.1 28.7001 172.8 28.2001 171.9 28.2001C171 28.2001 170.6 28.5001 170.5 29.3001L168.3 29.0001C168.8 27.1001 170.1 26.6001 171.9 26.6001C173.7 26.6001 175.3 27.7001 175.3 29.3001V33.6001C175.3 34.2001 175.3 34.8001 175.6 35.4001H173.4L173.2 34.6001L173.1 34.7001Z" fill="#525149"/>
<path d="M179.001 32.9999C179.401 33.4999 179.801 33.9999 180.501 33.9999C181.901 33.9999 182.101 32.2999 182.101 31.1999C182.101 30.0999 181.801 28.5999 180.601 28.5999C179.401 28.5999 179.501 29.0999 179.101 29.5999V32.9999H179.001ZM176.701 23.3999H179.001V27.5999C179.601 26.9999 180.201 26.5999 181.101 26.5999C182.001 26.5999 184.301 27.6999 184.301 30.8999C184.301 34.0999 182.701 35.6999 180.901 35.6999C179.101 35.6999 179.401 35.3999 178.701 34.7999L178.501 35.4999H176.601V23.3999H176.701Z" fill="#525149"/>
<path d="M187.8 35.4999H185.5V26.7999H187.8V35.4999ZM187.8 25.4999H185.5V23.3999H187.8V25.4999Z" fill="#525149"/>
<path d="M6.5998 20.4002C6.5998 20.1002 6.59981 19.8002 6.89981 19.6002C7.09981 19.4002 7.39981 19.3002 7.69981 19.3002C7.99981 19.3002 8.29981 19.4002 8.49981 19.6002C8.69981 19.8002 8.7998 20.1002 8.7998 20.4002C8.7998 20.7002 8.69981 21.0002 8.49981 21.2002C8.29981 21.4002 7.99981 21.5002 7.69981 21.5002C7.39981 21.5002 7.09981 21.4002 6.89981 21.2002C6.69981 21.0002 6.5998 20.7002 6.5998 20.4002ZM3.5998 20.4002C3.5998 20.1002 3.59981 19.8002 3.89981 19.6002C4.09981 19.4002 4.39981 19.3002 4.69981 19.3002C4.99981 19.3002 5.29981 19.4002 5.49981 19.6002C5.69981 19.8002 5.7998 20.1002 5.7998 20.4002C5.7998 20.7002 5.69981 21.0002 5.49981 21.2002C5.29981 21.4002 4.99981 21.5002 4.69981 21.5002C4.39981 21.5002 4.09981 21.4002 3.89981 21.2002C3.69981 21.0002 3.5998 20.7002 3.5998 20.4002ZM14.6998 14.0002V10.6002C14.6998 10.2002 14.6998 9.8002 14.5998 9.6002C14.5998 9.3002 14.3998 9.2002 14.1998 9.0002C13.9998 8.8002 13.7998 8.8002 13.5998 8.7002C13.2998 8.7002 13.0998 8.7002 12.6998 8.7002H12.4998V12.7002C12.4998 13.5002 12.3998 14.2002 12.0998 14.8002C11.8998 15.5002 11.4998 16.0002 10.8998 16.5002C10.2998 17.0002 9.69981 17.4002 8.89981 17.7002C8.09981 18.0002 7.09981 18.1002 5.99981 18.1002C4.89981 18.1002 4.09981 18.0002 3.39981 17.6002C2.69981 17.3002 2.0998 16.9002 1.5998 16.4002C1.0998 15.9002 0.799804 15.4002 0.599804 14.8002C0.399804 14.2002 0.299805 13.6002 0.299805 13.0002C0.299805 12.4002 0.399804 11.7002 0.599804 11.1002C0.799804 10.5002 1.09981 10.0002 1.49981 9.4002L3.2998 10.4002C2.9998 10.8002 2.79981 11.3002 2.69981 11.6002C2.59981 12.0002 2.49981 12.4002 2.49981 12.7002C2.49981 13.0002 2.49981 13.5002 2.69981 13.8002C2.89981 14.2002 3.09981 14.4002 3.39981 14.7002C3.69981 14.9002 4.0998 15.2002 4.5998 15.3002C5.0998 15.4002 5.59981 15.5002 6.19981 15.5002C6.79981 15.5002 7.39981 15.5002 7.89981 15.3002C8.39981 15.2002 8.79981 15.0002 9.19981 14.8002C9.59981 14.6002 9.8998 14.3002 10.0998 13.9002C10.2998 13.6002 10.3998 13.2002 10.3998 12.7002V6.2002H12.9998C14.2998 6.2002 15.2998 6.5002 15.8998 7.2002C16.4998 7.8002 16.7998 8.8002 16.7998 10.1002V11.5002H17.9998C18.1998 11.5002 18.2998 11.5002 18.3998 11.7002C18.3998 11.8002 18.4998 11.9002 18.4998 12.1002V13.2002C18.4998 13.3002 18.4998 13.4002 18.3998 13.5002C18.3998 13.6002 18.1998 13.7002 17.9998 13.7002H14.6998V14.0002Z" fill="#525149"/>
<path d="M20.2001 16.4001C20.2001 16.1001 20.3001 15.8001 20.5001 15.6001C20.7001 15.4001 21.0001 15.3001 21.3001 15.3001C21.6001 15.3001 21.9001 15.4001 22.1001 15.6001C22.3001 15.8001 22.4001 16.1001 22.4001 16.4001C22.4001 16.7001 22.3001 17.0001 22.1001 17.2001C21.9001 17.4001 21.6001 17.5001 21.3001 17.5001C21.0001 17.5001 20.7001 17.4001 20.5001 17.2001C20.3001 17.0001 20.2001 16.7001 20.2001 16.4001ZM18.0001 14.0001C17.8001 14.0001 17.7001 14.0001 17.6001 13.9001C17.5001 13.8001 17.6001 13.7001 17.6001 13.6001V12.5001C17.6001 12.4001 17.6001 12.2001 17.7001 12.1001C17.7001 12.0001 17.9001 11.9001 18.1001 11.9001H19.9001C20.2001 11.9001 20.4001 11.9001 20.5001 11.6001C20.5001 11.4001 20.6001 11.2001 20.6001 10.9001V6.6001H22.8001V10.2001C22.8001 10.7001 22.9001 11.1001 23.2001 11.4001C23.4001 11.7001 23.9001 11.9001 24.5001 11.9001H25.2001C25.4001 11.9001 25.5001 11.9001 25.6001 12.0001C25.6001 12.1001 25.6001 12.2001 25.6001 12.4001V13.5001C25.6001 13.6001 25.6001 13.7001 25.5001 13.8001C25.5001 13.9001 25.3001 14.0001 25.1001 14.0001H24.4001C23.8001 14.0001 23.4001 13.9001 23.1001 13.6001C22.8001 13.3001 22.5001 13.1001 22.3001 12.7001C22.1001 13.1001 21.8001 13.4001 21.4001 13.6001C21.0001 13.8001 20.6001 14.0001 20.0001 14.0001H18.1001H18.0001Z" fill="#525149"/>
<path d="M32.5998 3.6001C32.5998 3.3001 32.6998 3.0001 32.8998 2.8001C33.0998 2.6001 33.3998 2.5001 33.6998 2.5001C33.9998 2.5001 34.2998 2.6001 34.4998 2.8001C34.6998 3.0001 34.7998 3.3001 34.7998 3.6001C34.7998 3.9001 34.6998 4.2001 34.4998 4.4001C34.2998 4.6001 33.9998 4.7001 33.6998 4.7001C33.3998 4.7001 33.0998 4.6001 32.8998 4.4001C32.6998 4.2001 32.5998 3.9001 32.5998 3.6001ZM35.8998 10.8001C35.8998 10.3001 35.8998 9.8001 35.6998 9.5001C35.4998 9.2001 35.3998 8.9001 35.1998 8.6001C34.9998 8.4001 34.6998 8.2001 34.3998 8.1001C34.0998 8.0001 33.7998 8.0001 33.3998 8.0001C32.9998 8.0001 32.5998 8.0001 32.0998 8.3001C31.6998 8.5001 31.2998 8.7001 30.8998 9.1001C30.4998 9.4001 30.1998 9.8001 29.9998 10.3001C29.6998 10.8001 29.5998 11.3001 29.4998 11.9001H35.6998V10.8001H35.8998ZM24.7998 14.0001C24.5998 14.0001 24.4998 14.0001 24.3998 13.9001C24.3998 13.8001 24.2998 13.7001 24.2998 13.6001V12.5001C24.2998 12.4001 24.2998 12.2001 24.3998 12.1001C24.3998 12.0001 24.5998 11.9001 24.7998 11.9001H27.3998V0.600098H29.5998V8.2001C30.0998 7.5001 30.7998 6.9001 31.4998 6.6001C32.1998 6.3001 32.9998 6.0001 33.7998 6.0001C34.5998 6.0001 35.0998 6.1001 35.6998 6.4001C36.1998 6.6001 36.6998 7.0001 36.9998 7.4001C37.3998 7.8001 37.5998 8.3001 37.7998 8.9001C37.9998 9.5001 38.0998 10.1001 38.0998 10.8001V14.2001H24.8998L24.7998 14.0001Z" fill="#525149"/>
<path d="M45.9004 11.8999V10.1999C45.9004 9.4999 45.8004 8.8999 45.5004 8.5999C45.2004 8.1999 44.8004 7.9999 44.3004 7.9999C43.8004 7.9999 43.9004 7.9999 43.6004 8.0999C43.4004 8.1999 43.2004 8.2999 43.0004 8.4999C42.8004 8.6999 42.7004 8.8999 42.6004 9.0999C42.6004 9.2999 42.4004 9.5999 42.4004 9.8999C42.4004 10.1999 42.4004 10.4999 42.6004 10.7999C42.7004 10.9999 42.9004 11.1999 43.0004 11.3999C43.2004 11.5999 43.4004 11.6999 43.7004 11.6999C44.0004 11.6999 44.2004 11.7999 44.5004 11.7999H45.8004L45.9004 11.8999ZM48.0004 13.9999C48.0004 14.6999 47.8004 15.3999 47.6004 15.8999C47.4004 16.3999 47.0004 16.7999 46.6004 17.1999C46.2004 17.5999 45.7004 17.7999 45.1004 17.8999C44.5004 18.0999 43.9004 18.0999 43.2004 18.0999C42.5004 18.0999 42.6004 18.0999 42.3004 18.0999C42.0004 18.0999 41.6004 18.0999 41.3004 17.9999L41.5004 15.8999C41.9004 15.8999 42.2004 15.8999 42.5004 15.9999C42.8004 15.9999 43.1004 15.9999 43.3004 15.9999C43.6004 15.9999 44.0004 15.9999 44.3004 15.9999C44.6004 15.9999 44.9004 15.8999 45.1004 15.6999C45.3004 15.5999 45.5004 15.2999 45.7004 15.0999C45.8004 14.7999 45.9004 14.4999 45.9004 14.0999H44.6004C43.8004 14.0999 43.2004 13.9999 42.6004 13.7999C42.1004 13.5999 41.6004 13.2999 41.3004 12.8999C41.0004 12.4999 40.7004 12.0999 40.6004 11.6999C40.4004 11.2999 40.4004 10.7999 40.4004 10.2999C40.4004 9.7999 40.4004 9.1999 40.7004 8.5999C40.9004 8.0999 41.2004 7.5999 41.5004 7.1999C41.8004 6.7999 42.3004 6.4999 42.7004 6.2999C43.1004 6.0999 43.7004 5.8999 44.3004 5.8999C44.9004 5.8999 45.4004 5.8999 45.8004 6.1999C46.2004 6.3999 46.6004 6.5999 46.9004 6.9999C47.2004 7.3999 47.5004 7.6999 47.6004 8.1999C47.8004 8.6999 47.8004 9.1999 47.8004 9.6999V11.8999H49.6004C49.8004 11.8999 49.9004 11.8999 50.0004 11.9999C50.0004 12.0999 50.1004 12.1999 50.1004 12.3999V13.4999C50.1004 13.5999 50.1004 13.6999 50.0004 13.7999C50.0004 13.8999 49.8004 13.9999 49.6004 13.9999H47.8004H48.0004Z" fill="#525149"/>
<path d="M51.9998 16.4001C51.9998 16.1001 52.0998 15.8001 52.2998 15.6001C52.4998 15.4001 52.7998 15.3001 53.0998 15.3001C53.3998 15.3001 53.6998 15.4001 53.8998 15.6001C54.0998 15.8001 54.1998 16.1001 54.1998 16.4001C54.1998 16.7001 54.0998 17.0001 53.8998 17.2001C53.6998 17.4001 53.3998 17.5001 53.0998 17.5001C52.7998 17.5001 52.4998 17.4001 52.2998 17.2001C52.0998 17.0001 51.9998 16.7001 51.9998 16.4001ZM49.7998 14.0001C49.5998 14.0001 49.4998 14.0001 49.3998 13.9001C49.3998 13.8001 49.2998 13.7001 49.2998 13.6001V12.5001C49.2998 12.4001 49.2998 12.2001 49.3998 12.1001C49.3998 12.0001 49.5998 11.9001 49.7998 11.9001H52.3998V6.6001H54.4998V14.1001H49.7998V14.0001Z" fill="#525149"/>
<path d="M57.2998 0.5H59.3998V14H57.2998V0.5Z" fill="#525149"/>
<path d="M81.2002 14.0001C80.6002 14.0001 80.2002 13.9001 79.9002 13.6001C79.6002 13.3001 79.3002 13.1001 79.2002 12.7001C79.0002 13.1001 78.6002 13.4001 78.2002 13.6001C77.8002 13.8001 77.3002 13.9001 76.9002 13.9001H68.2002C67.7002 13.9001 67.3002 13.9001 67.0002 13.7001C66.7002 13.6001 66.4002 13.3001 66.2002 13.1001C66.0002 12.9001 65.8002 12.6001 65.8002 12.2001C65.8002 11.8001 65.7002 11.5001 65.7002 11.1001V7.9001H67.9002V10.7001C67.9002 10.9001 67.9002 11.1001 67.9002 11.2001C67.9002 11.3001 67.9002 11.4001 68.0002 11.5001C68.1002 11.6001 68.1002 11.6001 68.2002 11.6001H68.4002H76.8002C77.1002 11.6001 77.3002 11.6001 77.4002 11.4001C77.4002 11.2001 77.5002 11.0001 77.5002 10.7001V0.600098H79.7002V10.2001C79.7002 10.7001 79.8002 11.1001 80.0002 11.4001C80.2002 11.7001 80.7002 11.9001 81.3002 11.9001H82.0002C82.2002 11.9001 82.3002 11.9001 82.4002 12.0001C82.4002 12.1001 82.5002 12.2001 82.5002 12.4001V13.5001C82.5002 13.6001 82.5002 13.7001 82.4002 13.8001C82.4002 13.9001 82.2002 14.0001 82.0002 14.0001C82.0002 14.0001 81.2002 14.0001 81.3002 14.0001H81.2002Z" fill="#525149"/>
<path d="M84.3004 3.6C84.3004 3.3 84.4004 3 84.6004 2.8C84.8004 2.6 85.1004 2.5 85.4004 2.5C85.7004 2.5 86.0004 2.6 86.2004 2.8C86.4004 3 86.5004 3.3 86.5004 3.6C86.5004 3.9 86.4004 4.2 86.2004 4.4C86.0004 4.6 85.7004 4.7 85.4004 4.7C85.1004 4.7 84.8004 4.6 84.6004 4.4C84.4004 4.2 84.3004 3.9 84.3004 3.6ZM81.8004 14C81.6004 14 81.5004 14 81.4004 13.9C81.4004 13.8 81.4004 13.7 81.4004 13.6V12.5C81.4004 12.4 81.4004 12.2 81.5004 12.1C81.5004 12 81.7004 11.9 81.9004 11.9H83.7004C84.0004 11.9 84.2004 11.9 84.2004 11.6C84.3004 11.4 84.3004 11.2 84.3004 10.9V6.6H86.4004V10.2C86.4004 10.7 86.5004 11.1 86.8004 11.4C87.0004 11.7 87.5004 11.9 88.1004 11.9H88.8004C89.0004 11.9 89.2004 11.9 89.2004 12C89.2004 12.1 89.2004 12.2 89.2004 12.4V13.5C89.2004 13.6 89.2004 13.7 89.1004 13.8C89.1004 13.9 88.9004 14 88.7004 14H88.0004C87.4004 14 87.0004 13.9 86.7004 13.6C86.4004 13.3 86.1004 13.1 85.9004 12.7C85.7004 13.1 85.4004 13.4 85.0004 13.6C84.6004 13.8 84.2004 14 83.6004 14H81.7004H81.8004Z" fill="#525149"/>
<path d="M92.5998 16.4001C92.5998 16.1001 92.6998 15.8001 92.8998 15.6001C93.0998 15.4001 93.3998 15.3001 93.6998 15.3001C93.9998 15.3001 94.2998 15.4001 94.4998 15.6001C94.6998 15.8001 94.7998 16.1001 94.7998 16.4001C94.7998 16.7001 94.6998 17.0001 94.4998 17.2001C94.2998 17.4001 93.9998 17.5001 93.6998 17.5001C93.3998 17.5001 93.0998 17.4001 92.8998 17.2001C92.6998 17.0001 92.5998 16.7001 92.5998 16.4001ZM89.5998 16.4001C89.5998 16.1001 89.6998 15.8001 89.8998 15.6001C90.0998 15.4001 90.3998 15.3001 90.6998 15.3001C90.9998 15.3001 91.2998 15.4001 91.4998 15.6001C91.6998 15.8001 91.7998 16.1001 91.7998 16.4001C91.7998 16.7001 91.6998 17.0001 91.4998 17.2001C91.2998 17.4001 90.9998 17.5001 90.6998 17.5001C90.3998 17.5001 90.0998 17.4001 89.8998 17.2001C89.6998 17.0001 89.5998 16.7001 89.5998 16.4001ZM88.6998 14.0001C88.4998 14.0001 88.2998 14.0001 88.2998 13.9001C88.2998 13.8001 88.2998 13.7001 88.2998 13.6001V12.5001C88.2998 12.4001 88.2998 12.2001 88.3998 12.1001C88.3998 12.0001 88.5998 11.9001 88.7998 11.9001H90.5998C90.8998 11.9001 91.0998 11.9001 91.1998 11.6001C91.1998 11.4001 91.2998 11.2001 91.2998 10.9001V6.6001H93.3998V10.2001C93.3998 10.7001 93.4998 11.1001 93.7998 11.4001C93.9998 11.7001 94.4998 11.9001 95.0998 11.9001H95.7998C95.9998 11.9001 96.1998 11.9001 96.1998 12.0001C96.1998 12.1001 96.2998 12.2001 96.2998 12.4001V13.5001C96.2998 13.6001 96.2998 13.7001 96.1998 13.8001C96.1998 13.9001 95.9998 14.0001 95.7998 14.0001H95.0998C94.4998 14.0001 94.0998 13.9001 93.7998 13.6001C93.4998 13.3001 93.1998 13.1001 92.9998 12.7001C92.7998 13.1001 92.4998 13.4001 92.0998 13.6001C91.6998 13.8001 91.2998 14.0001 90.6998 14.0001H88.7998H88.6998Z" fill="#525149"/>
<path d="M95.5006 14.0001C95.3006 14.0001 95.1006 14.0001 95.1006 13.9001C95.1006 13.8001 95.1006 13.7001 95.1006 13.6001V12.5001C95.1006 12.4001 95.1006 12.2001 95.2006 12.1001C95.2006 12.0001 95.4006 11.9001 95.6006 11.9001H97.4006C97.7006 11.9001 97.9006 11.9001 98.0006 11.6001C98.1006 11.4001 98.1006 11.2001 98.1006 10.9001V0.600098H100.301V10.2001C100.301 10.7001 100.401 11.1001 100.701 11.4001C100.901 11.7001 101.401 11.9001 102.001 11.9001H102.701C102.901 11.9001 103.101 11.9001 103.101 12.0001C103.101 12.1001 103.201 12.2001 103.201 12.4001V13.5001C103.201 13.6001 103.201 13.7001 103.101 13.8001C103.101 13.9001 102.901 14.0001 102.701 14.0001H102.001C101.501 14.0001 101.001 13.9001 100.701 13.6001C100.401 13.3001 100.101 13.1001 99.9006 12.7001C99.7006 13.1001 99.4006 13.4001 99.0006 13.6001C98.6006 13.8001 98.1006 13.9001 97.6006 13.9001H95.7006L95.5006 14.0001Z" fill="#525149"/>
<path d="M102.4 14C102.2 14 102.1 14 102 13.9C102 13.8 101.9 13.7 101.9 13.6V12.5C101.9 12.4 101.9 12.2 102 12.1C102 12 102.2 11.9 102.4 11.9H108.2V10.1C108.2 9.7 108.2 9.3 108 9C107.9 8.7 107.7 8.6 107.5 8.4C107.3 8.2 107.1 8.2 106.8 8.2C106.5 8.2 106.2 8.2 105.9 8.2H103.6V6.3L107.2 0.5L109 1.7L106.1 6.1H106.3C106.8 6.1 107.3 6.1 107.8 6.3C108.3 6.5 108.7 6.6 109 6.9C109.4 7.2 109.6 7.6 109.9 8.1C110.1 8.6 110.2 9.2 110.2 10V14.1H102.2L102.4 14Z" fill="#525149"/>
<path d="M125.8 14.0002C125.3 14.0002 124.8 13.9002 124.5 13.6002C124.2 13.3002 123.9 13.1002 123.7 12.7002C123.5 13.1002 123.2 13.4002 122.8 13.6002C122.4 13.8002 122 13.9002 121.4 13.9002H117V11.7002H121.3C121.6 11.7002 121.8 11.7002 121.9 11.5002C122 11.3002 122 11.1002 122 10.8002C122 10.3002 122 9.9002 122 9.5002C122 9.1002 121.9 8.8002 121.7 8.6002C121.5 8.4002 121.3 8.2002 121 8.0002C120.7 7.9002 120.3 7.8002 119.8 7.8002H118V5.7002H120.2C120.9 5.7002 121.5 5.8002 122 6.0002C122.5 6.2002 122.9 6.5002 123.2 6.9002C123.5 7.3002 123.7 7.7002 123.8 8.2002C123.9 8.7002 124 9.2002 124 9.8002C124 10.4002 124.1 10.9002 124.4 11.3002C124.7 11.6002 125.1 11.8002 125.7 11.8002H126.4C126.6 11.8002 126.7 11.8002 126.8 12.0002C126.8 12.1002 126.9 12.2002 126.9 12.4002V13.5002C126.9 13.6002 126.9 13.7002 126.8 13.8002C126.8 13.9002 126.6 14.0002 126.4 14.0002H125.7H125.8Z" fill="#525149"/>
<path d="M131.2 3.6C131.2 3.3 131.3 3 131.5 2.8C131.7 2.6 132 2.5 132.3 2.5C132.6 2.5 132.9 2.6 133.1 2.8C133.3 3 133.4 3.3 133.4 3.6C133.4 3.9 133.3 4.2 133.1 4.4C132.9 4.6 132.6 4.7 132.3 4.7C132 4.7 131.7 4.6 131.5 4.4C131.3 4.2 131.2 3.9 131.2 3.6ZM126.4 14C126.2 14 126.1 14 126 13.9C126 13.8 125.9 13.7 125.9 13.6V12.5C125.9 12.4 125.9 12.2 126 12.1C126 12 126.2 11.9 126.4 11.9H131.2V6.6H133.3V14.1H126.4V14Z" fill="#525149"/>
<path d="M149.8 14.0001C149.3 14.0001 148.9 13.9001 148.5 13.6001C148.2 13.3001 147.9 13.1001 147.7 12.7001C147.5 13.1001 147.2 13.4001 146.8 13.7001C146.4 13.9001 145.9 14.0001 145.5 14.0001H135.5V11.8001H141.6V4.0001H143.7V11.8001H145.4C145.7 11.8001 145.9 11.8001 146 11.5001C146 11.3001 146.1 11.1001 146.1 10.8001V0.600098H148.3V10.2001C148.3 10.7001 148.4 11.1001 148.7 11.4001C148.9 11.7001 149.4 11.9001 150 11.9001H150.7C150.9 11.9001 151 11.9001 151.1 12.0001C151.1 12.1001 151.2 12.2001 151.2 12.4001V13.5001C151.2 13.6001 151.2 13.7001 151.1 13.8001C151.1 13.9001 150.9 14.0001 150.7 14.0001H150H149.8Z" fill="#525149"/>
<path d="M157.3 3.6C157.3 3.3 157.4 3 157.6 2.8C157.8 2.6 158.1 2.5 158.4 2.5C158.7 2.5 159 2.6 159.2 2.8C159.4 3 159.5 3.3 159.5 3.6C159.5 3.9 159.4 4.2 159.2 4.4C159 4.6 158.7 4.7 158.4 4.7C158.1 4.7 157.8 4.6 157.6 4.4C157.4 4.2 157.3 3.9 157.3 3.6ZM160 11.9V9.5C160 9.3 160 9.1 160 9C160 8.8 159.9 8.7 159.7 8.5C159.6 8.4 159.4 8.2 159.2 8.1C159 8 158.8 8 158.5 8C158.2 8 158 8 157.8 8.1C157.6 8.2 157.4 8.3 157.2 8.5C157 8.7 156.9 8.9 156.8 9.1C156.7 9.3 156.7 9.6 156.7 9.9C156.7 10.3 156.7 10.7 157 11C157.2 11.3 157.4 11.5 157.6 11.6C157.8 11.7 158.1 11.8 158.5 11.9H160.1H160ZM162.1 11.9H166.2C166.4 11.9 166.5 11.9 166.6 12.1C166.6 12.2 166.7 12.3 166.7 12.5V13.6C166.7 13.7 166.7 13.8 166.6 13.9C166.6 14 166.4 14.1 166.2 14.1H150.4C150.2 14.1 150.1 14.1 150 14C150 13.9 149.9 13.8 149.9 13.7V12.6C149.9 12.5 149.9 12.3 150 12.2C150 12.1 150.2 12 150.4 12H155C155 11.9 154.8 11.6 154.7 11.3C154.6 11 154.5 10.6 154.5 10.1C154.5 9.6 154.6 9.1 154.8 8.6C155 8.1 155.3 7.7 155.7 7.3C156.1 6.9 156.5 6.6 157 6.4C157.5 6.2 158.1 6 158.7 6C159.3 6 159.7 6 160.1 6.3C160.5 6.5 160.9 6.7 161.2 7C161.5 7.3 161.7 7.7 161.9 8.2C162.1 8.6 162.1 9.1 162.1 9.7V12V11.9Z" fill="#525149"/>
<path d="M170.001 16.4001C170.001 16.1001 170.101 15.8001 170.301 15.6001C170.501 15.4001 170.801 15.3001 171.101 15.3001C171.401 15.3001 171.701 15.4001 171.901 15.6001C172.101 15.8001 172.201 16.1001 172.201 16.4001C172.201 16.7001 172.101 17.0001 171.901 17.2001C171.701 17.4001 171.401 17.5001 171.101 17.5001C170.801 17.5001 170.501 17.4001 170.301 17.2001C170.101 17.0001 170.001 16.7001 170.001 16.4001ZM167.101 16.4001C167.101 16.1001 167.201 15.8001 167.401 15.6001C167.601 15.4001 167.901 15.3001 168.201 15.3001C168.501 15.3001 168.801 15.4001 169.001 15.6001C169.201 15.8001 169.301 16.1001 169.301 16.4001C169.301 16.7001 169.201 17.0001 169.001 17.2001C168.801 17.4001 168.501 17.5001 168.201 17.5001C167.901 17.5001 167.601 17.4001 167.401 17.2001C167.201 17.0001 167.101 16.7001 167.101 16.4001ZM166.101 14.0001C165.901 14.0001 165.701 14.0001 165.701 13.9001C165.701 13.8001 165.601 13.7001 165.601 13.6001V12.5001C165.601 12.4001 165.601 12.2001 165.701 12.1001C165.701 12.0001 165.901 11.9001 166.101 11.9001H167.901C168.201 11.9001 168.401 11.9001 168.501 11.6001C168.501 11.4001 168.601 11.2001 168.601 10.9001V6.6001H170.701V10.2001C170.701 10.7001 170.801 11.1001 171.101 11.4001C171.301 11.7001 171.801 11.9001 172.401 11.9001H173.101C173.301 11.9001 173.501 11.9001 173.501 12.0001C173.501 12.1001 173.601 12.2001 173.601 12.4001V13.5001C173.601 13.6001 173.601 13.7001 173.501 13.8001C173.501 13.9001 173.301 14.0001 173.101 14.0001H172.401C171.801 14.0001 171.401 13.9001 171.101 13.6001C170.801 13.3001 170.501 13.1001 170.301 12.7001C170.101 13.1001 169.801 13.4001 169.401 13.6001C169.001 13.8001 168.601 14.0001 168.001 14.0001H166.101Z" fill="#525149"/>
<path d="M172.9 14.0001C172.7 14.0001 172.5 14.0001 172.5 13.9001C172.5 13.8001 172.5 13.7001 172.5 13.6001V12.5001C172.5 12.4001 172.5 12.2001 172.6 12.1001C172.6 12.0001 172.8 11.9001 173 11.9001H174.8C175.1 11.9001 175.3 11.9001 175.4 11.6001C175.5 11.4001 175.5 11.2001 175.5 10.9001V0.600098H177.7V10.2001C177.7 10.7001 177.8 11.1001 178.1 11.4001C178.3 11.7001 178.8 11.9001 179.4 11.9001H180.1C180.3 11.9001 180.5 11.9001 180.5 12.0001C180.5 12.1001 180.5 12.2001 180.5 12.4001V13.5001C180.5 13.6001 180.5 13.7001 180.4 13.8001C180.4 13.9001 180.2 14.0001 180 14.0001H179.3C178.8 14.0001 178.3 13.9001 178 13.6001C177.7 13.3001 177.4 13.1001 177.2 12.7001C177 13.1001 176.7 13.4001 176.3 13.6001C175.9 13.8001 175.4 13.9001 174.9 13.9001H173L172.9 14.0001Z" fill="#525149"/>
<path d="M179.8 14C179.6 14 179.5 14 179.4 13.9C179.4 13.8 179.3 13.7 179.3 13.6V12.5C179.3 12.4 179.3 12.2 179.4 12.1C179.4 12 179.6 11.9 179.8 11.9H185.6V10.1C185.6 9.7 185.6 9.3 185.4 9C185.3 8.7 185.1 8.6 184.9 8.4C184.7 8.2 184.5 8.2 184.2 8.2C183.9 8.2 183.6 8.2 183.3 8.2H181V6.3L184.6 0.5L186.4 1.7L183.5 6.1H183.7C184.2 6.1 184.7 6.1 185.2 6.3C185.7 6.5 186.1 6.6 186.4 6.9C186.8 7.2 187 7.6 187.3 8.1C187.5 8.6 187.6 9.2 187.6 10V14.1H179.6L179.8 14Z" fill="#525149"/>
</svg>
