<svg width="36" height="18" viewBox="0 0 36 18" fill="none" xmlns="http://www.w3.org/2000/svg">
<path d="M8.6998 11.1001V17.1001H3.3998C1.9998 17.1001 0.799805 16.0001 0.799805 14.5001V3.2001C0.799805 1.8001 1.8998 0.600098 3.3998 0.600098H14.6998C16.0998 0.600098 17.2998 1.8001 17.2998 3.2001V8.5001H11.2998C9.89981 8.5001 8.6998 9.6001 8.6998 11.1001ZM27.9998 11.1001V17.1001H33.2998C34.6998 17.1001 35.8998 16.0001 35.8998 14.5001V3.2001C35.8998 1.8001 34.6998 0.600098 33.2998 0.600098H21.9998C20.5998 0.600098 19.3998 1.8001 19.3998 3.2001V8.5001H25.3998C26.7998 8.5001 27.9998 9.6001 27.9998 11.1001Z" fill="#0081C6"/>
</svg>
