<svg width="36" height="17" viewBox="0 0 36 17" fill="none" xmlns="http://www.w3.org/2000/svg">
<path d="M27.9998 6.2002V0.200195H33.2998C34.6998 0.200195 35.8998 1.30019 35.8998 2.80019V14.1002C35.8998 15.5002 34.6998 16.7002 33.2998 16.7002H21.9998C20.5998 16.7002 19.3998 15.5002 19.3998 14.1002V8.80019H25.3998C26.7998 8.80019 27.9998 7.7002 27.9998 6.2002ZM8.6998 6.2002V0.200195H3.3998C1.9998 0.200195 0.799805 1.30019 0.799805 2.80019V14.1002C0.799805 15.5002 1.8998 16.7002 3.3998 16.7002H14.6998C16.0998 16.7002 17.2998 15.5002 17.2998 14.1002V8.80019H11.2998C9.89981 8.80019 8.6998 7.7002 8.6998 6.2002Z" fill="#008752"/>
</svg>
